<svg xmlns="http://www.w3.org/2000/svg" xmlns:xlink="http://www.w3.org/1999/xlink" version="1.1" width="1081px" height="1081px" style="shape-rendering:geometricPrecision; text-rendering:geometricPrecision; image-rendering:optimizeQuality; fill-rule:evenodd; clip-rule:evenodd">
<g><path style="opacity:0.96" fill="#fefffe" d="M 506.5,106.5 C 508.604,106.201 510.604,106.534 512.5,107.5C 527.5,135.5 542.5,163.5 557.5,191.5C 548.242,193.676 538.908,194.342 529.5,193.5C 527.324,188.472 524.657,183.806 521.5,179.5C 510.901,181.026 500.234,182.026 489.5,182.5C 488.133,188.099 486.467,193.599 484.5,199C 476.122,199.671 467.789,200.671 459.5,202C 450.5,205.5 441.5,209 432.5,212.5C 423.755,206.044 414.921,199.711 406,193.5C 403.217,194.928 400.383,196.262 397.5,197.5C 400.402,205.372 403.402,213.206 406.5,221C 399.425,224.922 391.925,228.089 384,230.5C 382.523,229.556 381.523,228.223 381,226.5C 371.265,200.461 361.432,174.461 351.5,148.5C 365.863,142.206 380.53,136.372 395.5,131C 417.187,124.756 431.353,132.256 438,153.5C 440.016,163.951 437.182,172.784 429.5,180C 439,186.833 448.5,193.667 458,200.5C 467.932,170.203 477.766,139.87 487.5,109.5C 493.965,108.428 500.298,107.428 506.5,106.5 Z M 501.5,139.5 C 505.646,145.783 509.313,152.45 512.5,159.5C 507.267,160.977 501.934,161.977 496.5,162.5C 496.167,162.167 495.833,161.833 495.5,161.5C 497.816,154.235 499.816,146.901 501.5,139.5 Z M 401.5,152.5 C 410.409,152.31 414.243,156.643 413,165.5C 411.5,168.333 409.333,170.5 406.5,172C 400.981,174.34 395.314,176.173 389.5,177.5C 387.905,171.717 385.905,166.051 383.5,160.5C 389.256,157.249 395.256,154.583 401.5,152.5 Z"/></g>
<g><path style="opacity:0.963" fill="#fefffe" d="M 578.5,106.5 C 586.709,107.311 594.709,108.978 602.5,111.5C 611.255,128.011 619.755,144.677 628,161.5C 630.644,147.116 633.477,132.782 636.5,118.5C 637.5,118.167 638.5,117.833 639.5,117.5C 647.02,118.529 654.353,120.195 661.5,122.5C 655.524,151.047 650.191,179.713 645.5,208.5C 637.705,207.941 630.038,206.608 622.5,204.5C 613.922,187.011 605.089,169.677 596,152.5C 592.769,167.821 589.603,183.154 586.5,198.5C 578.812,196.941 571.145,195.274 563.5,193.5C 563.167,192.833 562.833,192.167 562.5,191.5C 567.837,163.148 573.171,134.815 578.5,106.5 Z"/></g>
<g><path style="opacity:0.962" fill="#fefffe" d="M 706.5,146.5 C 730.358,144.676 748.191,154.009 760,174.5C 768.195,195.813 764.029,214.313 747.5,230C 725.541,244.261 704.208,243.261 683.5,227C 666.543,208.696 664.043,188.529 676,166.5C 683.704,155.909 693.87,149.243 706.5,146.5 Z M 715.5,169.5 C 733.904,172.067 741.071,182.401 737,200.5C 729.281,215.952 717.781,219.785 702.5,212C 690.674,198.978 691.34,186.312 704.5,174C 708.053,171.879 711.72,170.379 715.5,169.5 Z"/></g>
<g><path style="opacity:0.958" fill="#fefffe" d="M 293.5,181.5 C 321.942,197.556 349.942,214.39 377.5,232C 370.758,237.785 363.591,242.951 356,247.5C 351.102,244.967 346.269,242.301 341.5,239.5C 332.147,245.51 323.147,252.01 314.5,259C 316.546,264.346 317.713,269.846 318,275.5C 311.078,280.378 304.245,285.378 297.5,290.5C 289.696,259.619 282.363,228.619 275.5,197.5C 275.833,196.5 276.167,195.5 276.5,194.5C 282.494,190.495 288.161,186.161 293.5,181.5 Z M 303.5,214.5 C 310.016,218.838 316.683,223.005 323.5,227C 318.667,230.5 313.833,234 309,237.5C 307.004,229.849 305.17,222.183 303.5,214.5 Z"/></g>
<g><path style="opacity:0.948" fill="#fefffe" d="M 800.5,194.5 C 807.885,199.039 814.885,204.205 821.5,210C 802.993,233.336 784.326,256.502 765.5,279.5C 758.649,274.239 751.982,268.739 745.5,263C 764.426,240.581 782.76,217.748 800.5,194.5 Z"/></g>
<g><path style="opacity:0.961" fill="#fefffe" d="M 843.5,230.5 C 846.263,230.744 848.429,232.077 850,234.5C 859.048,245.213 867.714,256.213 876,267.5C 888.382,295.686 880.882,316.853 853.5,331C 837.045,336.368 822.045,333.701 808.5,323C 797.98,311.315 787.647,299.481 777.5,287.5C 799.52,268.477 821.52,249.477 843.5,230.5 Z M 843.5,264.5 C 848.849,268.363 853.015,273.363 856,279.5C 859.099,293.42 853.932,302.92 840.5,308C 836.833,308.667 833.167,308.667 829.5,308C 821.613,304.779 815.613,299.446 811.5,292C 822.425,283.052 833.091,273.885 843.5,264.5 Z"/></g>
<g><path style="opacity:0.958" fill="#fefffe" d="M 230.5,247.5 C 254.326,248.489 265.826,260.823 265,284.5C 261.663,295.832 255.829,305.665 247.5,314C 254.248,319.038 260.581,324.538 266.5,330.5C 261.394,337.059 256.061,343.392 250.5,349.5C 227.5,330.833 204.5,312.167 181.5,293.5C 192.272,279.891 203.606,266.724 215.5,254C 220.306,251.129 225.306,248.963 230.5,247.5 Z M 230.5,272.5 C 242.393,275.288 245.227,281.955 239,292.5C 236.723,295.399 234.223,298.066 231.5,300.5C 225.512,296.688 220.179,292.188 215.5,287C 219.087,280.578 224.087,275.744 230.5,272.5 Z"/></g>
<g><path style="opacity:0.992" fill="#fefffe" d="M 517.5,298.5 C 619.211,293.257 695.044,334.591 745,422.5C 775.49,486.385 780.824,552.385 761,620.5C 739.761,684.732 698.928,731.898 638.5,762C 571.881,788.539 505.548,787.873 439.5,760C 378.075,728.011 337.242,678.845 317,612.5C 301.807,553.855 304.807,496.188 326,439.5C 346.405,391.823 378.571,354.323 422.5,327C 452.249,310.691 483.916,301.191 517.5,298.5 Z M 660.5,368.5 C 695.668,399.491 716.168,438.491 722,485.5C 725.278,518.997 715.778,548.164 693.5,573C 674.183,592.079 651.849,596.746 626.5,587C 613.412,580.569 601.412,572.569 590.5,563C 554.49,527.725 522.657,489.225 495,447.5C 485.284,432.403 478.617,416.069 475,398.5C 472.589,374.155 481.423,354.988 501.5,341C 521.846,327.33 544.179,321.997 568.5,325C 544.378,334.06 537.545,350.227 548,373.5C 554.5,381.333 561.667,388.5 569.5,395C 585.688,408.266 603.354,419.266 622.5,428C 643.155,434.896 656.988,428.063 664,407.5C 666.727,394.125 665.56,381.125 660.5,368.5 Z"/></g>
<g><path style="opacity:0.936" fill="#fefffe" d="M 185.5,354.5 C 201.712,354.54 207.212,362.206 202,377.5C 194.315,385.131 186.315,385.464 178,378.5C 172.677,367.754 175.177,359.754 185.5,354.5 Z"/></g>
<g><path style="opacity:0.934" fill="#fefffe" d="M 884.5,354.5 C 900.712,354.54 906.212,362.206 901,377.5C 893.315,385.131 885.315,385.464 877,378.5C 873.04,370.708 873.874,363.541 879.5,357C 881.315,356.243 882.981,355.41 884.5,354.5 Z"/></g>
<g><path style="opacity:0.957" fill="#fefffe" d="M 189.5,422.5 C 196.892,423.515 204.226,424.848 211.5,426.5C 206.308,452.267 200.642,477.934 194.5,503.5C 187.833,501.833 181.167,500.167 174.5,498.5C 174.167,497.667 173.833,496.833 173.5,496C 175.25,488.17 176.916,480.337 178.5,472.5C 156.661,468.133 134.994,463.133 113.5,457.5C 115.68,449.602 117.346,441.602 118.5,433.5C 140.5,438.167 162.5,442.833 184.5,447.5C 186.038,439.141 187.705,430.808 189.5,422.5 Z"/></g>
<g><path style="opacity:0.954" fill="#fefffe" d="M 868.5,423.5 C 888.878,430.293 909.212,437.293 929.5,444.5C 940.107,442.479 950.607,440.146 961,437.5C 963.911,445.883 965.744,454.549 966.5,463.5C 955.752,465.216 945.086,467.383 934.5,470C 918.683,484.316 903.016,498.816 887.5,513.5C 884.315,504.075 882.482,494.408 882,484.5C 890.797,477.372 899.297,469.872 907.5,462C 896.3,457.988 884.966,454.488 873.5,451.5C 871.576,442.213 869.909,432.88 868.5,423.5 Z"/></g>
<g><path style="opacity:0.965" fill="#fefffe" d="M 190.5,507.5 C 191.833,507.5 193.167,507.5 194.5,507.5C 194.5,516.167 194.5,524.833 194.5,533.5C 183.802,533.263 173.135,533.596 162.5,534.5C 162.5,544.5 162.5,554.5 162.5,564.5C 173.496,564.056 184.496,563.722 195.5,563.5C 195.529,569.681 195.862,575.847 196.5,582C 196.419,584.625 195.752,586.959 194.5,589C 165.483,589.584 136.483,590.417 107.5,591.5C 107.416,582.822 107.083,574.155 106.5,565.5C 117.871,565.768 129.205,565.434 140.5,564.5C 139.704,554.521 139.371,544.521 139.5,534.5C 128.505,535.233 117.505,535.4 106.5,535C 105.518,526.919 105.184,518.752 105.5,510.5C 133.982,509.579 162.315,508.579 190.5,507.5 Z"/></g>
<g><path style="opacity:0.963" fill="#fefffe" d="M 973.5,512.5 C 974.376,512.369 975.043,512.702 975.5,513.5C 974.694,522.452 974.194,531.452 974,540.5C 965.381,546.983 956.381,552.983 947,558.5C 946.502,561.817 946.335,565.15 946.5,568.5C 954.889,568.197 963.222,568.53 971.5,569.5C 972.802,577.528 972.802,585.528 971.5,593.5C 969.333,593.833 967.167,594.167 965,594.5C 937.848,593.077 910.681,592.077 883.5,591.5C 883.336,573.444 884.169,555.444 886,537.5C 891.118,518.179 903.618,510.346 923.5,514C 933.085,516.583 939.918,522.416 944,531.5C 954.153,525.516 963.986,519.183 973.5,512.5 Z M 914.5,538.5 C 919.971,538.156 923.805,540.489 926,545.5C 926.5,552.826 926.666,560.159 926.5,567.5C 919.841,567.046 913.174,566.713 906.5,566.5C 906.152,559.094 906.652,551.761 908,544.5C 909.494,541.686 911.66,539.686 914.5,538.5 Z"/></g>
<g><path style="opacity:0.956" fill="#fefffe" d="M 195.5,598.5 C 198.346,598.809 199.846,600.475 200,603.5C 205.679,624.55 211.512,645.55 217.5,666.5C 210.859,669.325 204.025,671.658 197,673.5C 192.393,658.515 187.893,643.515 183.5,628.5C 179.624,629.381 175.958,630.714 172.5,632.5C 176.322,645.455 179.989,658.455 183.5,671.5C 177.152,674.422 170.485,676.422 163.5,677.5C 160.312,664.433 156.812,651.433 153,638.5C 148.549,637.82 144.382,638.82 140.5,641.5C 144.972,656.389 148.972,671.389 152.5,686.5C 145.541,688.323 138.541,689.99 131.5,691.5C 125.375,668.455 119.041,645.455 112.5,622.5C 140.213,614.325 167.879,606.325 195.5,598.5 Z"/></g>
<g><path style="opacity:0.956" fill="#fefffe" d="M 881.5,598.5 C 888.459,600.323 895.459,601.99 902.5,603.5C 898.5,618.833 894.5,634.167 890.5,649.5C 894.166,649.958 897.666,650.958 901,652.5C 901.333,652.167 901.667,651.833 902,651.5C 905.615,637.993 909.615,624.659 914,611.5C 920.011,613.711 926.178,615.378 932.5,616.5C 929.461,629.99 925.794,643.323 921.5,656.5C 925.018,658.685 928.852,660.352 933,661.5C 937.92,647.066 942.254,632.399 946,617.5C 946.725,616.941 947.558,616.608 948.5,616.5C 954.809,618.327 961.143,619.994 967.5,621.5C 961.164,644.839 954.831,668.173 948.5,691.5C 920.063,683.911 891.73,675.911 863.5,667.5C 863.167,667 862.833,666.5 862.5,666C 868.915,643.504 875.248,621.004 881.5,598.5 Z"/></g>
<g><path style="opacity:0.955" fill="#fefffe" d="M 865.5,671.5 C 867.417,672.909 869.25,674.576 871,676.5C 888.426,699.015 906.092,721.349 924,743.5C 924.667,744.5 924.667,745.5 924,746.5C 920.363,752.463 916.363,758.129 912,763.5C 895.594,758.939 879.094,755.106 862.5,752C 873.408,765.073 883.742,778.573 893.5,792.5C 889.877,799.106 885.544,805.106 880.5,810.5C 850.484,802.33 820.484,794.497 790.5,787C 793.685,789.884 796.518,793.051 799,796.5C 799.982,797.759 800.315,799.092 800,800.5C 789.167,809.333 778.333,818.167 767.5,827C 765.993,827.837 765.493,829.004 766,830.5C 768.706,832.871 771.039,835.537 773,838.5C 783.501,829.589 794.168,820.922 805,812.5C 809.798,816.968 814.298,821.801 818.5,827C 808.293,836.209 797.793,845.043 787,853.5C 788.096,858.26 790.929,861.427 795.5,863C 807.022,853.311 818.688,843.811 830.5,834.5C 835.038,839.867 839.371,845.367 843.5,851C 825.665,866.659 807.331,881.826 788.5,896.5C 768.915,874.168 749.915,851.335 731.5,828C 750,812.833 768.5,797.667 787,782.5C 788.019,783.687 789.186,784.687 790.5,785.5C 795.29,778.753 799.957,771.92 804.5,765C 806.167,764.333 807.833,764.333 809.5,765C 824.481,769.776 839.481,774.109 854.5,778C 843.643,764.644 832.976,751.144 822.5,737.5C 825.903,730.639 830.237,724.639 835.5,719.5C 851.807,724.16 868.141,728.326 884.5,732C 873.5,719 862.5,706 851.5,693C 856.302,685.89 860.968,678.724 865.5,671.5 Z"/></g>
<g><path style="opacity:0.954" fill="#fefffe" d="M 233.5,705.5 C 234.496,705.414 235.329,705.748 236,706.5C 240.5,713 245,719.5 249.5,726C 240.5,732.333 231.5,738.667 222.5,745C 228.456,753.079 234.289,761.245 240,769.5C 249,763.167 258,756.833 267,750.5C 272.028,757.362 276.862,764.362 281.5,771.5C 257.5,788.5 233.5,805.5 209.5,822.5C 204.025,816.229 199.025,809.563 194.5,802.5C 202.694,795.813 211.194,789.48 220,783.5C 220.667,782.5 220.667,781.5 220,780.5C 214.661,773.001 209.161,765.668 203.5,758.5C 194.755,764.956 185.921,771.289 177,777.5C 171.792,770.913 166.959,764.08 162.5,757C 162.645,756.228 162.978,755.561 163.5,755C 187.076,738.724 210.409,722.224 233.5,705.5 Z"/></g>
<g><path style="opacity:0.96" fill="#fefffe" d="M 289.5,793.5 C 320.464,795.466 337.798,811.8 341.5,842.5C 340.119,863.445 329.785,877.945 310.5,886C 284.751,892.038 264.918,883.872 251,861.5C 241.74,839.595 245.573,820.429 262.5,804C 270.569,797.815 279.569,794.315 289.5,793.5 Z M 289.5,818.5 C 309.564,818.061 318.064,827.728 315,847.5C 308.577,861.465 298.077,866.298 283.5,862C 270.902,853.862 268.069,843.029 275,829.5C 278.906,824.404 283.739,820.738 289.5,818.5 Z"/></g>
<g><path style="opacity:0.959" fill="#fefffe" d="M 363.5,839.5 C 371.474,842.818 379.474,846.152 387.5,849.5C 389.795,862.613 392.295,875.613 395,888.5C 404.833,881.333 414.667,874.167 424.5,867C 426.167,866.333 427.833,866.333 429.5,867C 436.858,869.775 443.858,873.109 450.5,877C 439.12,904.255 427.62,931.421 416,958.5C 408.652,955.075 401.152,952.075 393.5,949.5C 398.615,934.325 404.615,919.492 411.5,905C 400.512,911.014 389.846,917.847 379.5,925.5C 378.808,924.975 378.308,924.308 378,923.5C 375.774,911.147 373.441,898.813 371,886.5C 365.033,901.764 358.533,916.764 351.5,931.5C 343.851,928.462 336.518,924.962 329.5,921C 340.743,893.764 352.076,866.597 363.5,839.5 Z"/></g>
<g><path style="opacity:0.959" fill="#fefffe" d="M 705.5,843.5 C 728.041,841.094 740.708,851.094 743.5,873.5C 743.264,880.469 740.931,886.636 736.5,892C 746.833,898.333 757.167,904.667 767.5,911C 759.44,915.696 751.107,919.863 742.5,923.5C 732.795,918.563 723.295,913.23 714,907.5C 711.246,909.127 708.412,910.627 705.5,912C 710,919.865 713.5,928.032 716,936.5C 709.015,939.825 702.015,943.159 695,946.5C 681.335,920.504 668.169,894.171 655.5,867.5C 671.685,858.407 688.352,850.407 705.5,843.5 Z M 704.5,867.5 C 714.44,866.274 718.94,870.607 718,880.5C 716.833,883 715,884.833 712.5,886C 707.5,888.5 702.5,891 697.5,893.5C 694.245,887.992 691.245,882.325 688.5,876.5C 693.828,873.501 699.161,870.501 704.5,867.5 Z"/></g>
<g><path style="opacity:0.961" fill="#fefffe" d="M 621.5,874.5 C 643.822,872.652 653.655,882.652 651,904.5C 649.414,907.919 647.248,910.919 644.5,913.5C 659.46,916.958 665.96,926.291 664,941.5C 661.261,950.573 655.427,956.74 646.5,960C 628.023,964.412 609.523,968.578 591,972.5C 584.768,943.508 578.602,914.508 572.5,885.5C 588.922,881.685 605.255,878.018 621.5,874.5 Z M 617.5,896.5 C 625.563,895.718 628.73,899.052 627,906.5C 625.786,908.049 624.286,909.215 622.5,910C 616.666,911.632 610.833,913.132 605,914.5C 603.105,910.025 602.105,905.358 602,900.5C 607.275,899.217 612.442,897.884 617.5,896.5 Z M 628.5,927.5 C 635.642,927.283 638.809,930.616 638,937.5C 635.9,940.467 633.066,942.3 629.5,943C 623.19,944.362 616.857,945.529 610.5,946.5C 609.574,941.537 608.908,936.537 608.5,931.5C 615.411,930.785 622.077,929.451 628.5,927.5 Z"/></g>
<g><path style="opacity:0.959" fill="#fefffe" d="M 459.5,876.5 C 482.779,879.897 506.112,883.064 529.5,886C 530.116,887.4 530.449,888.9 530.5,890.5C 529.645,896.152 528.978,901.819 528.5,907.5C 513.092,905.991 497.759,903.991 482.5,901.5C 481.671,904.802 481.004,908.135 480.5,911.5C 480.608,912.442 480.941,913.275 481.5,914C 495.3,915.566 508.966,917.733 522.5,920.5C 521.255,926.791 520.255,933.124 519.5,939.5C 505.522,937.646 491.522,935.979 477.5,934.5C 476.576,938.735 476.576,942.901 477.5,947C 492.479,949.081 507.479,950.914 522.5,952.5C 521.739,959.824 521.073,967.158 520.5,974.5C 496.5,971.5 472.5,968.5 448.5,965.5C 452.085,935.824 455.751,906.157 459.5,876.5 Z"/></g>
</svg>
